# xmcd
#
# Track frame offsets: 
#        150
#        15555
#        31018
#        44920
#        60802
#        78175
#        100482
#        117547
#        130285
#        154958
#        175441
#        197096
#        208393
#        230020
#        244795
#        261685
#        273362
#        290325
#        307753
#
# Disc length: 4316 seconds
#
# Revision: 0
# Processed by: cddbd v1.5.2PL0 Copyright (c) Steve Scherf et al.
# Submitted via: ExactAudioCopy v0.99pb4
#
DISCID=1810da13
DTITLE=Various Artist - Billboard 1978
DYEAR=2000
DGENRE=Other
TTITLE0=Frankie Valli - Grease
TTITLE1=Kansas - Dust in the Wind
TTITLE2=Olivia Newton-John - Hopelessly Devoted to You
TTITLE3=Queen - Don't Stop Me Now
TTITLE4=Billy Joel - Honesty
TTITLE5=Bee Gees - Too Much Heaven
TTITLE6=Sweet - Love Is Like Oxygen
TTITLE7=John Travolta and Olivia Newton-John - You're the One That I Wan
TTITLE7=t
TTITLE8=Boney M. - Rasputin
TTITLE9=Andy Gibb - Shadow Dancing
TTITLE10=The Rolling Stones - Miss You
TTITLE11=The Ramones - I Wanna Be Sedated
TTITLE12=Village People - YMCA
TTITLE13=Gloria Gaynor - I Will Survive
TTITLE14=The Cars - Just What I Needed
TTITLE15=John Travolta - Sandy
TTITLE16=Toto - I'll Supply the Love
TTITLE17=Bob Marley - Is This Love
TTITLE18=John Paul Young - Love Is in the Air
EXTD=
EXTT0=
EXTT1=
EXTT2=
EXTT3=
EXTT4=
EXTT5=
EXTT6=
EXTT7=
EXTT8=
EXTT9=
EXTT10=
EXTT11=
EXTT12=
EXTT13=
EXTT14=
EXTT15=
EXTT16=
EXTT17=
EXTT18=
PLAYORDER=
